<?xml version="1.0" encoding="UTF-8"?>
<svg xmlns="http://www.w3.org/2000/svg" xmlns:xlink="http://www.w3.org/1999/xlink" width="15px" height="15px" viewBox="0 0 15 15" version="1.1">
<g id="surface1">
<path fill="#fff" style="stroke-width:2;stroke-linecap:round;stroke-linejoin:round;stroke:rgb(0%,0%,0%);stroke-opacity:1;stroke-miterlimit:4;" d="M 8 4 L 7.2 4 C 6.08125 4 5.51875 4 5.09375 4.21875 C 4.7125 4.4125 4.4125 4.7125 4.21875 5.09375 C 4 5.51875 4 6.08125 4 7.2 L 4 8 M 8 4 L 16 4 M 8 4 L 8 2 M 16 4 L 16.8 4 C 17.91875 4 18.48125 4 18.90625 4.21875 C 19.28125 4.4125 19.5875 4.7125 19.78125 5.09375 C 20 5.51875 20 6.08125 20 7.2 L 20 8 M 16 4 L 16 2 M 4 8 L 4 16.8 C 4 17.91875 4 18.48125 4.21875 18.90625 C 4.4125 19.28125 4.7125 19.5875 5.09375 19.78125 C 5.51875 20 6.08125 20 7.2 20 L 16.8 20 C 17.91875 20 18.48125 20 18.90625 19.78125 C 19.28125 19.5875 19.5875 19.28125 19.78125 18.90625 C 20 18.48125 20 17.91875 20 16.80625 L 20 8 M 4 8 L 20 8 M 16 16 Z M 12 16 Z M 8 16 Z M 16 12 Z M 12 12 Z M 8 12 Z M 8 12 " transform="matrix(0.625,0,0,0.625,0,0)"/>
</g>
</svg>
