<?xml version="1.0" encoding="UTF-8"?>
<svg xmlns="http://www.w3.org/2000/svg" xmlns:xlink="http://www.w3.org/1999/xlink" width="15px" height="15px" viewBox="0 0 15 15" version="1.1">
<g id="surface1">
<path style="fill:none;stroke-width:1.2;stroke-linecap:butt;stroke-linejoin:miter;stroke:rgb(7.058824%,9.803922%,13.72549%);stroke-opacity:1;stroke-miterlimit:4;" d="M 9.498698 16.002604 L 9.498698 14.498698 L 15.501302 14.498698 L 15.501302 16.002604 M 13.502604 10.501302 L 13.502604 14.498698 M 11.497396 10.501302 L 11.497396 14.498698 M 15.501302 7.5 C 15.501302 9.153646 14.153646 10.501302 12.5 10.501302 C 10.846354 10.501302 9.498698 9.153646 9.498698 7.5 C 9.498698 5.846354 10.846354 4.498698 12.5 4.498698 C 14.153646 4.498698 15.501302 5.846354 15.501302 7.5 Z M 18.502604 19.498698 L 6.497396 19.498698 C 5.950521 19.498698 5.501302 19.049479 5.501302 18.502604 L 5.501302 17.5 C 5.501302 16.946615 5.950521 16.497396 6.497396 16.497396 L 18.502604 16.497396 C 19.049479 16.497396 19.498698 16.946615 19.498698 17.5 L 19.498698 18.502604 C 19.498698 19.049479 19.049479 19.498698 18.502604 19.498698 Z M 18.502604 19.498698 " transform="matrix(0.6,0,0,0.6,0,0)"/>
</g>
</svg>
